<?xml version="1.0" encoding="utf-8"?>
<!-- Generator: Adobe Illustrator 16.0.0, SVG Export Plug-In . SVG Version: 6.00 Build 0)  -->
<!DOCTYPE svg PUBLIC "-//W3C//DTD SVG 1.1//EN" "http://www.w3.org/Graphics/SVG/1.1/DTD/svg11.dtd">
<svg version="1.1" id="Layer_1" xmlns="http://www.w3.org/2000/svg" xmlns:xlink="http://www.w3.org/1999/xlink" x="0px" y="0px"
	 width="600px" height="600px" viewBox="0 0 600 600" enable-background="new 0 0 600 600" xml:space="preserve">
<circle fill="#F58520" cx="300" cy="300" r="294.667"/>
<g>
	<defs>
		<circle id="SVGID_3_" cx="300" cy="300" r="294.667"/>
	</defs>
	<clipPath id="SVGID_2_">
		<use xlink:href="#SVGID_3_"  overflow="visible"/>
	</clipPath>
	<polyline opacity="0.5" clip-path="url(#SVGID_2_)" fill="#D16F28" points="511.005,268.946 639.074,409.585 277.15,679.972 
		163.287,468.554 	"/>
	<g clip-path="url(#SVGID_2_)">
		<path fill-rule="evenodd" clip-rule="evenodd" fill="#152B50" d="M265.623,509.927c-6.768-5.208-9.492-12.625-9.627-21.016
			c-0.096-5.942-0.066-11.888-0.018-17.831c0.055-6.805-2.975-11.968-8.916-14.907c-6.635-3.281-13.467-6.278-20.461-8.678
			c-6.377-2.19-12.425-0.896-17.355,4.189c-4.006,4.135-8.063,8.226-12.219,12.21c-12.313,11.804-27.43,11.837-39.611,0.001
			c-7.326-7.119-14.541-14.354-21.658-21.682c-11.934-12.284-11.975-27.249-0.173-39.598c3.977-4.161,8.106-8.179,12.198-12.229
			c5.159-5.106,6.521-11.262,4.137-17.905c-2.375-6.619-5.195-13.106-8.246-19.444c-3.09-6.417-8.456-9.601-15.701-9.506
			c-5.944,0.076-11.893,0.14-17.832-0.024c-15.564-0.43-26.552-11.326-26.884-26.887c-0.235-10.954-0.225-21.919-0.005-32.875
			c0.311-15.578,11.227-26.496,26.797-26.986c5.937-0.186,11.887-0.124,17.83-0.027c7.242,0.119,12.658-2.98,15.74-9.418
			c3.118-6.511,6.002-13.172,8.406-19.974c2.284-6.462,0.786-12.44-4.184-17.382c-4.215-4.191-8.506-8.311-12.585-12.631
			c-11.306-11.977-11.337-26.918,0.05-38.791c7.328-7.64,14.815-15.134,22.459-22.457c11.884-11.387,26.822-11.373,38.803-0.095
			c4.326,4.072,8.468,8.343,12.625,12.591c5.108,5.222,11.282,6.404,17.891,4.088c6.463-2.264,12.784-5.012,18.97-7.959
			c6.595-3.142,10.064-8.502,9.937-16.022c-0.101-5.942-0.154-11.892,0.023-17.83c0.465-15.577,11.363-26.543,26.918-26.874
			c10.954-0.233,21.922-0.229,32.875-0.002c15.57,0.322,26.516,11.3,26.955,26.826c0.17,5.939,0.111,11.888,0.027,17.83
			c-0.104,7.24,3.037,12.648,9.445,15.74c6.504,3.137,13.152,6.066,19.969,8.421c6.396,2.21,12.424,0.899,17.361-4.141
			c4.031-4.111,8.072-8.216,12.223-12.206c12.318-11.84,27.408-11.893,39.602-0.049c7.328,7.116,14.545,14.352,21.658,21.682
			c11.889,12.249,11.91,27.294,0.135,39.618c-3.98,4.162-8.107,8.179-12.201,12.229c-4.99,4.938-6.477,10.913-4.201,17.377
			c2.391,6.805,5.264,13.472,8.377,19.985c3.072,6.436,8.482,9.569,15.727,9.443c5.199-0.092,10.4-0.043,15.602-0.012
			c14.631,0.085,23.076,6.05,28.156,19.82c4.066,7.021,1.826,41.383-0.127,47.71c-4.002,12.963-13.365,19.093-26.826,19.283
			c-5.564,0.079-11.131,0.102-16.693-0.005c-7.498-0.142-12.895,3.282-16.055,9.85c-2.963,6.165-5.672,12.491-7.963,18.934
			c-2.43,6.847-1.08,13.124,4.316,18.347c4.131,3.999,8.232,8.038,12.176,12.219c11.469,12.152,11.404,27.134-0.246,39.166
			c-7.225,7.464-14.566,14.816-22.035,22.033c-11.992,11.588-27.02,11.569-39.15,0.042c-4.301-4.088-8.445-8.343-12.605-12.576
			c-4.961-5.05-11.043-6.175-17.385-4.006c-6.811,2.332-13.443,5.29-19.928,8.438c-6.166,2.998-9.342,8.217-9.32,15.226
			c0.021,6.306,0.156,12.619-0.068,18.918c-0.422,11.803-3.727,23.063-18.178,24.833
			C319.957,515.42,277.244,519.449,265.623,509.927z M221.802,300.184c0.104,42.748,35.286,77.83,77.782,77.564
			c42.814-0.267,77.896-35.583,77.422-77.938c-0.48-42.781-34.953-77.14-77.52-77.263
			C256.889,222.425,221.697,257.594,221.802,300.184z"/>
		<path fill-rule="evenodd" clip-rule="evenodd" fill="#F58520" d="M173.58,300.208c-0.17-69.056,56.888-126.078,125.957-125.88
			c69.017,0.198,124.91,55.909,125.688,125.272c0.771,68.673-56.113,125.933-125.533,126.366
			C230.793,426.396,173.75,369.516,173.58,300.208z"/>
	</g>
	<g clip-path="url(#SVGID_2_)">
		<g>
			<path fill-rule="evenodd" clip-rule="evenodd" fill="#DEDDDD" d="M301.152,316.797c-18.68,18.703-37.734,38.519-56.029,56.115
				c-3.687,3.545-7.375,6.679-12.6,7.424h-3.258c-0.199-0.078-0.391-0.192-0.599-0.229c-7.106-1.218-11.61-5.318-13.54-12.249
				c-0.203-0.721-0.351-1.458-0.521-2.188v-3.258c0.732-5.362,3.958-9.153,7.656-12.827c18.688-18.549,37.272-37.203,55.891-55.822
				c0.452-0.452,16.236-16.224,16.651-16.643c5.131-5.151,10.258-10.303,15.438-15.405c0.912-0.896,1.181-1.653,0.814-2.952
				c-5.123-18.199,5.235-37.629,23.248-43.349c12.119-3.849,20.446-0.627,23.325,0.256c3.548,1.091,4.089,3.714,1.463,6.34
				c-5.938,5.95-11.858,11.912-17.845,17.812c-0.904,0.888-0.974,1.551-0.407,2.634c2.659,5.124,6.523,8.983,11.643,11.643
				c1.091,0.565,1.751,0.484,2.639-0.412c5.938-6.022,12.343-13.21,18.333-19.18c2.479-2.472,5.127-1.918,6.157,1.433
				c0.899,2.928,2.646,6.98,1.543,17.417c-2.37,22.416-23.708,36.304-45.49,30.403c-0.969-0.26-1.49,0.004-2.113,0.635
				c-5.359,5.388-10.739,10.759-16.11,16.134L301.152,316.797z"/>
			<path fill-rule="evenodd" clip-rule="evenodd" fill="#F58520" d="M244.264,355.297c-0.284,0.479-0.652,1.469-1.322,2.168
				c-2.744,2.857-5.561,5.646-8.389,8.42c-1.738,1.707-3.626,1.802-5.027,0.354c-1.361-1.407-1.262-3.225,0.386-4.909
				c2.81-2.869,5.665-5.693,8.514-8.525c1.083-1.076,2.362-1.576,3.847-0.956C243.534,352.375,244.193,353.384,244.264,355.297z"/>
		</g>
		<g>
			<g>
				<path fill-rule="evenodd" clip-rule="evenodd" fill="#FFFFFF" d="M383.265,354.269c-1.417-2.639-3.147-5.237-5.237-7.362
					c-9.729-9.904-19.566-19.693-29.396-29.499c-1.471-1.467-2.944-2.933-4.414-4.402c-4.858-4.854-10.462-4.862-15.296-0.028
					c-0.492,0.492-0.851,1.124-1.193,1.588c-0.879-0.88-1.718-1.723-2.541-2.545l-0.211-0.212l-27.443-27.162
					c-0.639-0.59-1.05-0.949-1.437-1.336c-7.217-7.211-14.445-14.407-21.607-21.672c-0.733-0.746-1.291-1.857-1.512-2.887
					c-0.956-4.504-1.783-9.037-2.605-13.569c-0.293-1.625-1.189-2.688-2.574-3.535c-11.963-7.322-23.907-14.68-35.859-22.031h-1.629
					c-0.884,0.688-1.845,1.303-2.643,2.081c-2.41,2.333-4.781,4.708-7.119,7.114c-0.736,0.766-1.314,1.686-1.967,2.533v1.629
					c7.326,11.915,14.664,23.818,21.953,35.754c0.953,1.551,2.154,2.422,3.971,2.732c4.646,0.798,9.277,1.71,13.902,2.622
					c0.555,0.11,1.165,0.379,1.557,0.766c7.773,7.737,15.515,15.503,23.264,23.264c0.069,0.07,0.098,0.184,0.199,0.391
					c-0.031,0.037-0.068,0.074-0.102,0.11l4.643,4.642c0.037-0.032,0.078-0.069,0.119-0.105c4.629,4.63,9.153,9.154,13.755,13.756
					c-0.032,0.036-0.069,0.077-0.105,0.118l4.41,4.41c0.008-0.013,0.016-0.021,0.024-0.033c2.553,2.545,4.769,4.761,7.443,7.428
					c-0.565,0.407-1.396,0.848-2.02,1.482c-4.32,4.41-4.41,10.099-0.069,14.469c11.586,11.671,23.232,23.28,34.879,34.895
					c3.604,3.592,7.925,5.812,12.998,6.495c0.204,0.028,0.387,0.171,0.578,0.261h5.213c2.939-1.034,6.092-1.678,8.771-3.172
					c6.332-3.526,10.001-9.109,11.133-16.31c0.041-0.248,0.196-0.48,0.298-0.721v-5.213
					C384.71,358.752,384.36,356.309,383.265,354.269z"/>
			</g>
			<path fill-rule="evenodd" clip-rule="evenodd" fill="#F58520" d="M340.338,328.286c1.206,0.731,2.2,1.104,2.887,1.785
				c8.465,8.399,16.896,16.833,25.311,25.285c1.637,1.643,1.71,3.521,0.34,4.902c-1.362,1.373-3.276,1.313-4.896-0.299
				c-8.488-8.454-16.953-16.932-25.417-25.41c-1.07-1.072-1.737-2.425-0.901-3.802C338.24,329.794,339.35,329.163,340.338,328.286z"
				/>
			<path fill-rule="evenodd" clip-rule="evenodd" fill="#F58520" d="M360.607,366.602c0.066,2.894-2.484,4.558-4.57,3.49
				c-0.657-0.337-1.238-0.872-1.77-1.401c-8.137-8.115-16.261-16.243-24.381-24.376c-0.456-0.457-0.907-0.941-1.254-1.481
				c-0.818-1.271-0.629-2.82,0.401-3.882c1.012-1.044,2.595-1.293,3.867-0.539c0.506,0.299,0.962,0.703,1.381,1.121
				c8.248,8.233,16.499,16.465,24.709,24.736C359.756,365.039,360.251,366.076,360.607,366.602z"/>
		</g>
	</g>
	<path opacity="0.2" clip-path="url(#SVGID_2_)" fill-rule="evenodd" clip-rule="evenodd" fill="#EDEDED" d="M300,425.96
		c0.104,0.001,0.205,0.005,0.309,0.006c68.898,0.431,125.941-56.45,126.111-125.758c0.17-69.056-56.888-126.078-125.957-125.88
		c-0.155,0-0.309,0.006-0.463,0.007V83.809c5.69-0.005,11.381,0.049,17.068,0.17c15.555,0.331,26.453,11.297,26.918,26.874
		c0.178,5.938,0.124,11.888,0.023,17.83c-0.128,7.521,3.342,12.88,9.937,16.022c6.186,2.947,12.507,5.695,18.97,7.959
		c6.608,2.316,12.782,1.134,17.891-4.088c4.157-4.248,8.299-8.519,12.625-12.591c11.98-11.278,26.919-11.292,38.803,0.095
		c7.644,7.323,15.131,14.817,22.459,22.457c11.387,11.873,11.355,26.814,0.05,38.791c-4.079,4.32-8.37,8.44-12.585,12.631
		c-4.97,4.942-6.468,10.92-4.184,17.382c2.404,6.802,5.288,13.463,8.406,19.974c3.082,6.438,8.498,9.537,15.74,9.418
		c5.943-0.096,11.894-0.158,17.83,0.027c15.57,0.49,26.486,11.408,26.797,26.986c0.22,10.955,0.23,21.92-0.005,32.875
		c-0.332,15.561-11.319,26.457-26.884,26.887c-5.939,0.164-11.888,0.101-17.832,0.024c-7.245-0.095-12.611,3.089-15.701,9.506
		c-3.051,6.338-5.871,12.825-8.246,19.444c-2.385,6.644-1.022,12.799,4.137,17.905c4.092,4.05,8.222,8.067,12.198,12.229
		c11.802,12.349,11.761,27.313-0.173,39.598c-7.117,7.327-14.332,14.563-21.658,21.682c-12.182,11.836-27.299,11.803-39.611-0.001
		c-4.156-3.984-8.213-8.075-12.219-12.21c-4.931-5.086-10.979-6.38-17.355-4.189c-6.994,2.399-13.826,5.396-20.461,8.678
		c-5.941,2.939-8.971,8.103-8.916,14.907c0.049,5.943,0.078,11.889-0.018,17.831c-0.135,8.391-2.859,15.808-9.627,21.016
		c-6.159,5.047-21.053,6.287-34.377,6.268V425.96z"/>
</g>
</svg>
